<?xml version="1.0" encoding="UTF-8"?>
<svg width="36px" height="41px" viewBox="0 0 36 41" version="1.1" xmlns="http://www.w3.org/2000/svg" xmlns:xlink="http://www.w3.org/1999/xlink">
    <!-- Generator: Sketch 46 (44423) - http://www.bohemiancoding.com/sketch -->
    <title>Shape</title>
    <desc>Created with Sketch.</desc>
    <defs></defs>
    <g id="Pages" stroke="none" stroke-width="1" fill="none" fill-rule="evenodd">
        <g id="17s-0-Import-Panel" transform="translate(-885.000000, -396.000000)" fill-rule="nonzero" fill="#8EA3B3">
            <g id="02" transform="translate(503.000000, 307.000000)">
                <g id="icon-copy" transform="translate(382.000000, 89.000000)">
                    <path d="M33.6837347,10.4261413 C33.6813887,10.3698383 33.677166,10.3271419 33.6694243,10.2851492 C33.6553486,10.2288462 33.6447918,10.1960028 33.6323582,10.1636286 C33.6030337,10.0974726 33.588958,10.0711979 33.5725363,10.0456269 C33.5296052,9.98064387 33.5042689,9.94873884 33.4749444,9.91917977 L24.1138681,0.447843389 C24.0749252,0.411011848 24.0456007,0.387317672 24.0153378,0.365969454 C23.9562197,0.328903317 23.9304141,0.315062164 23.9041394,0.302393991 C23.8302417,0.270958153 23.7938794,0.260166746 23.757517,0.251486702 C23.7000411,0.23928772 23.658283,0.235768783 23.6167596,0.234830399 C23.6131624,0.234674002 16.737003,0.234126612 2.98828135,0.233188229 C2.58970308,0.233188229 2.26666465,0.55622665 2.26666465,0.954804921 L2.26666465,16.6180629 L0,16.6180629 L0,32.6299303 L2.26689925,32.6299303 L2.26689925,39.9019311 C2.26689925,40.3002747 2.58970308,40.6233131 2.98851594,40.6233131 L32.9623526,40.6233131 C33.3604617,40.6233131 33.6835001,40.3002747 33.6835001,39.9019311 L33.6835001,32.6299303 L35.8741557,32.6299303 L35.8741557,16.6182975 L33.6837347,16.6182975 L33.6837347,10.4261413 Z M24.3217199,2.71169289 L31.2338507,9.7049938 L24.3217199,9.7049938 L24.3217199,2.71169289 L24.3217199,2.71169289 Z M32.2402667,39.180549 L3.70989804,39.180549 L3.70989804,32.6296957 L32.2402667,32.6296957 L32.2402667,39.180549 Z M9.71578521,27.4946282 C10.2469101,27.4946282 10.835511,27.3792071 11.182009,27.2405609 L11.4475714,28.614354 C11.1242984,28.7757559 10.3970514,28.9488876 9.45045735,28.9488876 C6.76058187,28.9488876 5.37529365,27.2750465 5.37529365,25.0583508 C5.37529365,22.4034301 7.26848178,20.9254765 9.62358906,20.9254765 C10.5356975,20.9254765 11.2282244,21.1105726 11.5400022,21.2724437 L11.182009,22.6689925 C10.8242504,22.5186166 10.3278457,22.3806743 9.70429001,22.3806743 C8.3075066,22.3806743 7.22226641,23.2233424 7.22226641,24.9551286 C7.22203182,26.5133139 8.14563549,27.4946282 9.71578521,27.4946282 Z M15.1185266,25.5664853 C13.8254345,25.1160613 12.9827664,24.4003095 12.9827664,23.2690886 C12.9827664,21.9417455 14.0909969,20.9254765 15.9267091,20.9254765 C16.8040974,20.9254765 17.4506435,21.1105726 17.912328,21.3184245 L17.5198492,22.7386675 C17.2080714,22.5882916 16.6541907,22.3689445 15.8922235,22.3689445 C15.1302564,22.3689445 14.7610026,22.7156771 14.7610026,23.1194165 C14.7610026,23.6155866 15.1996967,23.8351682 16.2040013,24.2163864 C17.5775598,24.7240517 18.2243404,25.4398035 18.2243404,26.5367735 C18.2243404,27.8413608 17.2200358,28.9495914 15.0842756,28.9495914 C14.1953921,28.9495914 13.3180038,28.7187491 12.8793096,28.476177 L13.2370682,27.0214485 C13.7104826,27.2637859 14.4377295,27.5061234 15.1882015,27.5061234 C15.9961495,27.5061234 16.4233484,27.1711206 16.4233484,26.6634553 C16.4231138,26.1783111 16.0536254,25.9014881 15.1185266,25.5664853 Z M19.332571,21.052862 L21.2607139,21.052862 L22.207308,24.342599 C22.473105,25.2664372 22.7154425,26.1553207 22.9000694,27.1246706 L22.9343204,27.1246706 C23.130677,26.1900409 23.3732491,25.2659681 23.638577,24.3770846 L24.6313864,21.0521582 L26.5018187,21.0521582 L23.8809144,28.8332318 L21.8263244,28.8332318 L19.332571,21.052862 Z M32.2402667,16.6182975 L3.70989804,16.6182975 L3.70989804,1.67642161 L22.8789558,1.67642161 L22.8789558,10.4261413 C22.8789558,10.8247196 23.2017596,11.147758 23.6003378,11.147758 L32.2402667,11.147758 L32.2402667,16.6182975 L32.2402667,16.6182975 Z" id="Shape"></path>
                </g>
            </g>
        </g>
    </g>
</svg>