<?xml version="1.0" encoding="UTF-8"?>
<svg width="280px" height="210px" viewBox="0 0 280 210" version="1.1" xmlns="http://www.w3.org/2000/svg" xmlns:xlink="http://www.w3.org/1999/xlink">
    <title>man-sell-goods-red</title>
    <defs>
        <rect id="path-1" x="0" y="0" width="280" height="210"></rect>
        <polygon id="path-3" points="0 0.0400992819 70.6640494 0.0400992819 70.6640494 21.9055136 0 21.9055136"></polygon>
        <polygon id="path-5" points="0 -1.20194929e-05 51.3920343 -1.20194929e-05 51.3920343 12.9810403 0 12.9810403"></polygon>
        <path d="M22.5545845,39.2629299 C19.0460449,39.2629299 23.8715265,7.34494406 23.8715265,7.34494406 L23.8715265,7.34494406 L9.391115,7.34494406 C9.391115,7.34494406 -8.81600422,62.0491298 5.66242392,72.0462145 L5.66242392,72.0462145 C20.1408521,82.0432992 51.9517437,43.7567147 51.9517437,43.7567147 L51.9517437,43.7567147 L44.2325598,0.172579025 C44.2325598,0.172579025 26.9437299,39.2629299 22.5545845,39.2629299" id="path-7"></path>
        <path d="M9.10697948,0.19008186 C9.10697948,0.19008186 0.0950293511,6.25173289 0.0950293511,13.2028973 L0.0950293511,13.2028973 L0.0950293511,105.460951 L52.9056114,105.460951 L52.9056114,19.2056402 C52.9056114,19.2056402 51.8266324,0.0251389744 32.9217308,0.0251389744 L32.9217308,0.0251389744 C14.0188091,0.0251389744 9.10697948,0.19008186 9.10697948,0.19008186" id="path-9"></path>
        <path d="M0.223136542,20.8713831 C0.223136542,20.8713831 22.7595677,37.3398624 22.7595677,48.5688091 L22.7595677,48.5688091 C22.7595677,59.7996836 11.7888893,102.018596 11.7888893,102.018596 L11.7888893,102.018596 L23.9436853,105.430653 C23.9436853,105.430653 48.5548353,71.3139323 48.5548353,51.9558065 L48.5548353,51.9558065 C48.5548353,32.5996083 18.2361984,0.30265144 18.2361984,0.30265144 L18.2361984,0.30265144 L0.223136542,20.8713831 Z" id="path-11"></path>
        <rect id="path-13" x="-0.33919598" y="-0.189090909" width="129" height="101"></rect>
        <path d="M22.4001102,39.3644807 C18.9156002,39.3644807 23.7080325,7.36394124 23.7080325,7.36394124 L23.7080325,7.36394124 L9.32679608,7.36394124 C9.32679608,7.36394124 -8.75562418,62.2096155 5.62364247,72.2325569 L5.62364247,72.2325569 C20.0029091,82.2554983 51.5959308,43.8698883 51.5959308,43.8698883 L51.5959308,43.8698883 L43.9296149,0.173025388 C43.9296149,0.173025388 26.7591947,39.3644807 22.4001102,39.3644807" id="path-15"></path>
        <path d="M9.05882766,0.190059818 C9.05882766,0.190059818 0.0945268973,6.25100793 0.0945268973,13.2013663 L0.0945268973,13.2013663 L0.0945268973,105.448722 L52.6258808,105.448722 L52.6258808,19.2034131 C52.6258808,19.2034131 51.5526066,0.0251360593 32.747662,0.0251360593 L32.747662,0.0251360593 C13.9446867,0.0251360593 9.05882766,0.190059818 9.05882766,0.190059818" id="path-17"></path>
        <path d="M0.220477645,20.8689628 C0.220477645,20.8689628 22.4883645,37.3355324 22.4883645,48.5631771 L22.4883645,48.5631771 C22.4883645,59.7927492 11.6484128,102.006766 11.6484128,102.006766 L11.6484128,102.006766 L23.6583721,105.418428 C23.6583721,105.418428 47.9762554,71.3056627 47.9762554,51.9497817 L47.9762554,51.9497817 C47.9762554,32.595828 18.0188957,0.302616345 18.0188957,0.302616345 L18.0188957,0.302616345 L0.220477645,20.8689628 Z" id="path-19"></path>
    </defs>
    <g id="Page-1" stroke="none" stroke-width="1" fill="none" fill-rule="evenodd">
        <g id="03-Home-emptycards" transform="translate(-1057.000000, -140.000000)">
            <g id="man-sell-goods-red" transform="translate(1197.000000, 245.000000) scale(-1, 1) translate(-1197.000000, -245.000000) translate(1057.000000, 140.000000)">
                <mask id="mask-2" fill="white">
                    <use xlink:href="#path-1"></use>
                </mask>
                <g id="Rectangle"></g>
                <g id="Group-2" mask="url(#mask-2)">
                    <g transform="translate(14.000000, 0.000000)">
                        <g id="Group-5" transform="translate(0.000000, 51.000000)">
                            <g id="Pot" transform="translate(11.000000, 108.000000)">
                                <path d="M0.0852121431,3.37564255 C0.0852121431,3.37564255 6.20633353,0.482887563 29.4898396,0.482887563 C52.7733456,0.482887563 58.7652261,3.37564255 58.7652261,3.37564255 C58.7652261,3.37564255 29.2186506,20.9395284 0.0852121431,3.37564255" id="Fill-144" fill="#3C79DF"></path>
                                <path d="M30.0450795,8.33482822 L28.9342897,8.33482822 L5.25066377,8.33482822 C5.25066377,8.33482822 7.31696839,21.1462645 14.3418462,36.2302476 L28.9342897,36.2302476 L30.0450795,36.2302476 L44.637523,36.2302476 C51.6627107,21.1462645 53.7287054,8.33482822 53.7287054,8.33482822 L30.0450795,8.33482822 Z" id="Fill-146" fill="#3C79DF"></path>
                                <path d="M0.0852121431,3.37564255 L4.4242349,13.707486 C4.4242349,13.707486 31.2849553,19.2865699 55.2527872,13.707486 L58.7652261,3.37564255 C58.7652261,3.37564255 32.1112292,10.1945228 0.0852121431,3.37564255" id="Fill-150" fill="#316FD5"></path>
                                <path d="M10.4419946,26.8382318 C10.4419946,26.8382318 13.2617395,22.4763181 14.8036422,22.4763181 C16.3284988,22.4763181 17.5917743,26.7898798 19.1169408,26.7898798 C20.6098745,26.7898798 21.8551741,22.7245873 23.3397397,22.5668232 C24.8788531,22.4031701 26.1697123,26.9448543 27.7175037,26.9448543 C29.2789321,26.9448543 30.5812587,22.6929725 32.134009,22.5280796 C33.6185747,22.3703155 34.8635643,26.7511361 36.356808,26.7511361 C37.8776354,26.7511361 39.1461797,22.6092862 40.6586391,22.4490426 C42.1841155,22.2869392 43.4635074,26.78833 44.9976619,26.78833 C46.4627019,26.78833 49.1414286,22.6443105 49.1414286,22.6443105" id="Stroke-152" stroke="#ADCAE9"></path>
                            </g>
                            <g id="leaves">
                                <g id="daun" transform="translate(39.089888, 21.562500)">
                                    <path d="M20.2570382,0 C6.91035166,-0.0730460499 6.92018917,23.4231405 6.96656599,32.9967667 C7.00029459,39.8649265 -6.36958038,64.2709913 3.84667085,79.3707068 C14.0636248,94.471133 24.7092129,83.2668343 30.5006939,69.2646596 C36.292175,55.2624849 20.6793484,43.3644039 19.6035467,33.2036218 C18.527745,23.0435506 36.368767,0.0890260299 20.2570382,0" id="Fill-27" fill="#316FD5"></path>
                                    <path d="M22.4455302,5.55984782 C19.5046578,5.55410285 13.9263775,24.3882626 12.8432091,44.3551583 C11.7593023,64.3220541 17.8485251,84.1919813 17.8485251,84.1919813 C17.8485251,84.1919813 27.1045572,78.738759 29.1904132,69.2265063 C31.2755308,59.7149719 17.1965566,38.2813375 16.9359169,34.8579896 C16.6752772,31.4332052 29.542609,5.57349656 22.4455302,5.55984782" id="Fill-29" fill="#3C79DF"></path>
                                    <path d="M18.84265,4.79390374 C18.6546008,4.71544602 18.4371909,4.80531577 18.3588953,4.99789379 C2.44392636,44.0905191 15.0802691,84.3243474 15.2095966,84.7266215 C15.2606285,84.88639 15.4053354,84.9862452 15.5612275,84.9862452 C15.5996762,84.9862452 15.638824,84.9805392 15.6772727,84.9677007 C15.8716134,84.9020815 15.9771726,84.6888192 15.9135575,84.4905351 C15.78423,84.0911141 3.23177535,44.1240419 19.0425832,5.28747407 C19.1208788,5.09489605 19.0313982,4.87378795 18.84265,4.79390374" id="Fill-31" fill="#5594FE"></path>
                                    <path d="M23.257185,12.7625531 C19.6921007,14.8566401 16.3308181,19.5447379 15.9586271,20.0719304 C15.8401041,20.2411355 15.8849116,20.4718696 16.0598052,20.5865375 C16.125571,20.6298875 16.2007319,20.6508633 16.2751701,20.6508633 C16.3973066,20.6508633 16.5179977,20.5949278 16.5917132,20.4893494 C16.9537864,19.9747424 20.2276222,15.4090036 23.6546705,13.3953239 C23.8353458,13.2890464 23.8924382,13.0618083 23.7833113,12.8870097 C23.6734608,12.7115119 23.4378602,12.6555764 23.257185,12.7625531" id="Fill-33" fill="#5594FE"></path>
                                </g>
                                <g id="daun">
                                    <path d="M41.8481408,61.6812857 C33.9831981,55.1348571 52.3529156,42.072 39.3330028,33.2398571 C32.9225892,28.8905714 30.0347857,22.9505714 22.3278362,11.0655714 C14.2503466,-1.39085714 6.48388398,-1.728 1.83264997,4.00342857 C-4.92208958,12.327 9.64941537,21.8605714 3.22058103,40.6612857 C-2.39136484,57.0762857 20.6579263,64.8255714 16.1710619,77.5948571 C8.29053238,100.022 26.5993198,113.544857 37.6368788,114.522 C51.9214455,115.785571 78.2092424,91.9498571 41.8481408,61.6812857" id="Fill-35" fill="#316FD5"></path>
                                    <path d="M38.4855029,64.0110113 C31.3176723,57.8215045 42.8624273,45.3990432 35.6238051,38.0207807 C28.3851829,30.6432304 15.2615601,2.67150284 8.94179883,2.38873711 C-1.57969553,1.91864798 22.8090912,18.9422847 27.0658845,73.2090886 C29.6286842,105.879571 43.0018654,116.875383 49.0413204,108.170899 C61.5378296,90.1607874 54.3092183,77.6770721 38.4855029,64.0110113" id="Fill-38" fill="#3C79DF"></path>
                                    <path d="M39.359871,111.11578 C30.0580637,106.370408 25.8221856,94.1553356 24.7380952,68.9558443 C23.6787718,44.3246612 8.74280799,12.486621 7.04307874,8.9375369 C6.95391726,8.75070562 6.73030591,8.67114248 6.54278375,8.76136139 C6.35596921,8.8515803 6.27812982,9.076062 6.3672913,9.26360367 C8.06065187,12.79848 22.9364671,44.5065197 23.9894218,68.9885221 C25.0862496,94.4998724 29.4410097,106.899645 39.0209158,111.786384 C39.0746957,111.814089 39.1327215,111.827586 39.1900396,111.827586 C39.3266123,111.827586 39.4582316,111.752285 39.5240413,111.621575 C39.6181562,111.436164 39.5445626,111.210262 39.359871,111.11578" id="Fill-40" fill="#5594FE"></path>
                                    <path d="M7.73137433,29.4331714 C7.57221805,29.2969313 7.33700477,29.3206252 7.20601774,29.4879636 C7.07573494,29.655302 7.09897457,29.9026073 7.25813086,30.0395879 C7.30883552,30.0832736 12.3405686,34.4229649 15.2011564,37.1729416 C15.2722837,37.241802 15.3624254,37.2758621 15.452567,37.2758621 C15.5539763,37.2758621 15.6546814,37.2329168 15.7279214,37.1477668 C15.8673592,36.9885732 15.8567958,36.7405273 15.7046818,36.5939212 C12.8286009,33.8298762 7.78207899,29.476857 7.73137433,29.4331714" id="Fill-42" fill="#5594FE"></path>
                                    <path d="M6.11326311,46.845556 C5.93210876,46.7389434 5.69847716,46.8001736 5.59208492,46.9809828 C5.48497382,47.1625124 5.5453586,47.3973483 5.72723182,47.5039609 C14.1983543,52.4981848 20.6293337,60.0647979 20.6933128,60.1404353 C20.7687938,60.229039 20.8766238,60.2758621 20.9844538,60.2758621 C21.0714366,60.2758621 21.1591383,60.2463275 21.2303061,60.1858176 C21.3906133,60.0489501 21.4107416,59.8083514 21.2755947,59.6477122 C21.2101778,59.5706341 14.6986854,51.9074934 6.11326311,46.845556" id="Fill-44" fill="#5594FE"></path>
                                    <path d="M17.2625491,81.7898565 C17.1063017,81.6474641 16.8628463,81.6583061 16.7182266,81.8129862 C16.5750604,81.9691119 16.5852346,82.2112513 16.7422088,82.3543665 C19.760328,85.1053589 25.3627071,92.5632517 25.4193922,92.6391462 C25.4949724,92.7388931 25.6105228,92.7931034 25.7282534,92.7931034 C25.808194,92.7931034 25.8888613,92.7678053 25.9579008,92.7164862 C26.1286829,92.5899955 26.1635661,92.3500245 26.0363879,92.1808884 C25.8052871,91.8715282 20.3337197,84.5892768 17.2625491,81.7898565" id="Fill-46" fill="#5594FE"></path>
                                    <path d="M34.9485459,41.3616726 C31.0651815,45.4928218 27.1057149,53.8422546 26.9391516,54.1957106 C26.8515624,54.381925 26.934126,54.6039769 27.1250994,54.6897058 C27.1767914,54.7128948 27.2306373,54.7241379 27.2844832,54.7241379 C27.4280722,54.7241379 27.5659176,54.6433279 27.6298147,54.5077076 C27.6700196,54.4219787 31.7048705,45.9116286 35.5078251,41.8655056 C35.6506961,41.7144259 35.6399269,41.4790228 35.4855688,41.339889 C35.3312106,41.2007552 35.090699,41.2098903 34.9485459,41.3616726" id="Fill-48" fill="#5594FE"></path>
                                    <path d="M42.8185278,77.0935963 C34.7736961,88.4653369 36.5632161,104.981995 36.5821451,105.147731 C36.6039863,105.340496 36.7714353,105.482759 36.9650937,105.482759 C36.9789264,105.482759 36.9942152,105.481336 37.008776,105.479913 C37.2199073,105.457151 37.3727955,105.270076 37.3487703,105.063085 C37.3298412,104.900906 35.5745391,88.6581023 43.4526498,77.5225173 C43.5742323,77.3503798 43.53055,77.115647 43.3550925,76.9975692 C43.1810912,76.8794915 42.9393822,76.9228815 42.8185278,77.0935963" id="Fill-50" fill="#5594FE"></path>
                                </g>
                            </g>
                        </g>
                        <g id="Illustration" transform="translate(48.000000, 0.000000)">
                            <g id="Group" transform="translate(103.809045, 49.400000)">
                                <g id="shoe" transform="translate(36.621046, 36.571221) scale(-1, 1) translate(-36.621046, -36.571221) translate(1.121046, 22.571221)">
                                    <g id="Group-3">
                                        <mask id="mask-4" fill="white">
                                            <use xlink:href="#path-3"></use>
                                        </mask>
                                        <g id="Clip-2"></g>
                                        <path d="M10.3051686,21.9055136 L70.6640494,21.9055136 C70.6640494,20.5181637 69.5599236,17.0862979 66.3211544,16.2830953 C66.3211544,16.2830953 62.1990844,14.3846164 56.5312383,11.9019902 C50.8633922,9.41936392 32.755728,1.89846673 30.4738678,0.438098346 C28.2656161,-1.02227004 26.4254063,1.89846673 24.9532385,3.35883512 C23.4810707,4.8192035 20.536735,7.4478666 15.8994064,7.4478666 C11.2620777,7.4478666 8.31774207,6.49862715 7.50804977,5.25731402 C6.69835747,4.01600089 5.88866516,1.67941147 4.41649734,1.89846673 C2.94432951,2.11752199 -6.1340326e-06,5.62240612 -6.1340326e-06,12.924248 C-6.1340326e-06,20.22609 2.94432951,21.9055136 2.94432951,21.9055136 L10.3051686,21.9055136 Z" id="Fill-1" fill="#233062" mask="url(#mask-4)"></path>
                                    </g>
                                    <g id="Group-6" transform="translate(0.000000, 8.924473)">
                                        <mask id="mask-6" fill="white">
                                            <use xlink:href="#path-5"></use>
                                        </mask>
                                        <g id="Clip-5"></g>
                                        <path d="M30.8352181,12.9810403 L51.3920343,12.9810403 C49.9236903,8.65402286 42.5819702,7.21168371 33.7719062,5.76934457 C24.9618421,4.32700542 0.367079885,-1.20194929e-05 0.367079885,-1.20194929e-05 C0.146828283,1.08174234 -6.11810005e-06,2.30773062 -6.11810005e-06,3.6779528 C3.01009911,4.11065455 7.26829674,4.83182412 13.21509,5.76934457 C29.6605429,8.43767199 30.8352181,12.9810403 30.8352181,12.9810403" id="Fill-4" fill="#37498F" mask="url(#mask-6)"></path>
                                    </g>
                                    <path d="M70.6640556,21.1774219 C70.6640556,26.532106 63.317454,27.6679481 58.9094931,27.6679481 L3.07532157,27.6679481 C2.2671954,27.6679481 1.60600126,26.9377639 1.60600126,26.0453165 L1.60600126,22.8000534 C1.60600126,21.9076061 2.2671954,21.1774219 3.07532157,21.1774219 L70.6640556,21.1774219 Z" id="Fill-7" fill="#1B2449"></path>
                                    <path d="M48.4974906,12.5068524 L50.1954907,8.75735819 C50.5646212,8.00745935 51.3767082,7.63250993 52.1149691,8.00745935 C52.85323,8.38240877 53.2223605,9.2072975 52.85323,9.95719634 L51.1552299,13.7066905 C50.7860995,14.4565894 49.9740125,14.8315388 49.2357515,14.4565894 C48.4974906,14.1566298 48.1283602,13.2567512 48.4974906,12.5068524 M33.0678376,5.45780329 L34.7658377,1.70830909 C35.1349681,0.958410244 35.9470551,0.583460824 36.685316,0.958410244 C37.4235769,1.33335966 37.7927074,2.15824839 37.4235769,2.90814723 L35.7255768,6.65764144 C35.3564464,7.40754028 34.5443594,7.7824897 33.8060985,7.40754028 C33.0678376,7.10758074 32.6987071,6.20770213 33.0678376,5.45780329 M38.2356639,7.7824897 L39.933664,4.03299549 C40.3027945,3.28309665 41.1148815,2.90814723 41.8531424,3.28309665 C42.5914033,3.65804607 42.9605338,4.4829348 42.5914033,5.23283364 L40.8934032,8.98232784 C40.5242728,9.73222669 39.7121858,10.1071761 38.9739249,9.73222669 C38.2356639,9.43226715 37.8665335,8.53238854 38.2356639,7.7824897 M43.3296642,10.182166 L45.0276643,6.43267178 C45.3967948,5.68277294 46.2088818,5.30782352 46.9471427,5.68277294 C47.6854036,6.05772236 48.0545341,6.88261109 47.6854036,7.63250993 L45.9874035,11.3820041 C45.6182731,12.131903 44.8061861,12.5068524 44.0679252,12.131903 C43.3296642,11.8319434 43.0343599,10.9320648 43.3296642,10.182166" id="Fill-9" fill="#F5F8FA"></path>
                                </g>
                                <g id="lines" transform="translate(28.411321, 0.000000)" fill="#233062">
                                    <path d="M7.95699121,13.4552872 C8.23017699,13.1793358 8.2279915,12.7344643 7.95116324,12.4606973 L1.19873921,5.78471264 C0.921910952,5.51094558 0.476800251,5.51385799 0.203614469,5.78980937 C-0.0702998079,6.06648885 -0.0673858262,6.51063223 0.208713937,6.78439929 L6.96186646,13.461112 C7.23869472,13.734151 7.68307693,13.7312386 7.95699121,13.4552872" id="Fill-9"></path>
                                    <path d="M37.6055163,13.2945947 C37.328688,13.0215557 37.3265025,12.5766842 37.5996883,12.3000047 L44.2799913,5.55120972 C44.5531771,5.27453024 44.9982878,5.27234593 45.2751161,5.54538489 C45.5512158,5.81842385 45.5541298,6.26402344 45.2802155,6.53997482 L38.600641,13.2894979 C38.3267268,13.5654493 37.8823445,13.5676336 37.6055163,13.2945947" id="Fill-12"></path>
                                    <path d="M23.4368632,10.8997995 C23.8251513,10.8976038 24.1384043,10.5816067 24.1362302,10.1927993 L24.0852241,0.699780655 C24.0830386,0.310973174 23.7661431,-0.0021115013 23.3771266,6.14500619e-05 C22.98811,0.00225712208 22.6755855,0.318254213 22.6777596,0.707061694 L22.7287657,10.2008084 C22.7309511,10.5888878 23.0478466,10.9019724 23.4368632,10.8997995" id="Fill-14"></path>
                                </g>
                                <g id="box" transform="translate(0.000000, 50.239169)">
                                    <path d="M4.79971552,97.7525072 C5.42526993,100.134591 7.34685059,101.771305 10.5644575,102.662649 L58.1011412,102.662649 C61.5987806,101.772167 63.6623422,100.135453 64.291826,97.7525072 C64.9213097,95.3695618 65.2185005,93.4918576 65.1833982,92.1193945 L65.1833982,4.77500695 L4.02366655,4.77500695 L4.02366655,91.1427916 C3.91547812,93.1671845 4.17416111,95.370423 4.79971552,97.7525072 Z" id="Fill-18" fill="#C4DCF6"></path>
                                    <rect id="Rectangle-2" fill="#ADCBEB" x="0" y="0" width="69.2070647" height="4.77500695" rx="1"></rect>
                                </g>
                            </g>
                            <g id="tag" transform="translate(188.921657, 96.703941) rotate(45.000000) translate(-188.921657, -96.703941) translate(174.921657, 90.703941)">
                                <path d="M5.43160608,0 L25.339196,0 C26.4437655,1.75920346e-15 27.339196,0.8954305 27.339196,2 L27.339196,9.17090909 C27.339196,10.2754786 26.4437655,11.1709091 25.339196,11.1709091 L5.43160608,11.1709091 C4.80309232,11.1709091 4.21113722,10.8754575 3.83331427,10.3731833 L0.231867477,5.58545455 L0.231867477,5.58545455 L3.83331427,0.797725775 C4.21113722,0.295451584 4.80309232,-3.28633106e-16 5.43160608,0 Z" id="Rectangle" fill="#212B53"></path>
                                <path d="M7.5441403,6.83545063 L8.04950737,6.12103127 C8.35797817,6.44516598 8.83709241,6.71638074 9.44090761,6.71638074 C9.95283789,6.71638074 10.2022398,6.47824095 10.2022398,6.22687118 C10.2022398,5.90273647 9.79532088,5.81012655 9.31620665,5.69105666 C8.6008169,5.5256818 7.68196768,5.32723198 7.68196768,4.32175289 C7.68196768,3.58748854 8.31203571,2.97890909 9.34245948,2.97890909 C10.0381596,2.97890909 10.615722,3.1905889 11.0488937,3.59410354 L10.5304003,4.28206292 C10.175987,3.95131322 9.70343596,3.79916835 9.25713777,3.79916835 C8.85678204,3.79916835 8.63363294,3.97777319 8.63363294,4.24237296 C8.63363294,4.5268177 9.03398867,4.61942762 9.5065397,4.73188252 C10.2284927,4.90387236 11.1473419,5.12216717 11.1473419,6.12103127 C11.1473419,6.92806055 10.5763427,7.53664 9.39496515,7.53664 C8.55487444,7.53664 7.95105924,7.25219526 7.5441403,6.83545063 Z M14.7964859,7.45726007 L14.5273944,6.70976574 L12.6503167,6.70976574 L12.3746619,7.45726007 L11.3114221,7.45726007 L13.0047299,3.04505903 L14.1729811,3.04505903 L15.8597257,7.45726007 L14.7964859,7.45726007 Z M13.5888555,3.98438819 L12.9062818,5.88289148 L14.2714292,5.88289148 L13.5888555,3.98438819 Z M16.2666447,7.45726007 L16.2666447,3.04505903 L17.1986203,3.04505903 L17.1986203,6.63038581 L19.0494451,6.63038581 L19.0494451,7.45726007 L16.2666447,7.45726007 Z M19.6992028,7.45726007 L19.6992028,3.04505903 L22.7970373,3.04505903 L22.7970373,3.87193329 L20.6311784,3.87193329 L20.6311784,4.80464745 L22.7510949,4.80464745 L22.7510949,5.63152171 L20.6311784,5.63152171 L20.6311784,6.63038581 L22.7970373,6.63038581 L22.7970373,7.45726007 L19.6992028,7.45726007 Z" id="SALE" fill="#FFFFFF"></path>
                                <ellipse id="Oval" fill="#DBEAF5" cx="4.43338313" cy="5.21309091" rx="1" ry="1"></ellipse>
                            </g>
                            <path d="M175.311558,87.1018182 C178.01341,89.4157874 182.454938,93.5700225 181.48439,87.2372972" id="Path-2" stroke="#212B53"></path>
                            <g id="person" transform="translate(63.339196, 180.189091) scale(-1, 1) translate(-63.339196, -180.189091) translate(0.339196, 4.189091)">
                                <g id="Group-15" transform="translate(23.339196, 159.810909)">
                                    <polygon id="Fill-11" fill="#212B53" points="22.3718756 0.231885319 22.3718756 168.682385 39.4637194 168.682385 56.3737989 0.231885319"></polygon>
                                    <path d="M37.3037194,0.191453965 C37.3037194,0.191453965 42.2233421,47.8850499 53.5187,79.6698705 C64.8140578,111.452766 82.2494564,168.682385 82.2494564,168.682385 L99.8346607,168.682385 C99.8346607,168.682385 75.4143168,49.2924461 80.9990772,0.191453965 L37.3037194,0.191453965 Z" id="Fill-13" fill="#233062"></path>
                                </g>
                                <g id="Group-18" transform="translate(4.339196, 63.810909)">
                                    <mask id="mask-8" fill="white">
                                        <use xlink:href="#path-7"></use>
                                    </mask>
                                    <g id="Clip-17"></g>
                                    <path d="M22.5545845,39.2629299 C19.0460449,39.2629299 23.8715265,7.34494406 23.8715265,7.34494406 L23.8715265,7.34494406 L9.391115,7.34494406 C9.391115,7.34494406 -8.81600422,62.0491298 5.66242392,72.0462145 L5.66242392,72.0462145 C20.1408521,82.0432992 51.9517437,43.7567147 51.9517437,43.7567147 L51.9517437,43.7567147 L44.2325598,0.172579025 C44.2325598,0.172579025 26.9437299,39.2629299 22.5545845,39.2629299" id="Fill-16" fill="#EC515D" mask="url(#mask-8)"></path>
                                </g>
                                <path d="M99.339196,163.676401 L94.3452207,176.378714 C91.9408541,181.369395 83.1040507,181.495815 77.2367913,179.910701 C76.3540561,179.67342 76.0459493,178.545362 76.6602726,177.852969 C79.8831067,174.215957 88.2454636,164.89587 91.1450692,162.810909 L99.339196,163.676401 Z" id="Fill-19" fill="#F6B58E"></path>
                                <g id="Group-23" transform="translate(47.339196, 54.810909)">
                                    <mask id="mask-10" fill="white">
                                        <use xlink:href="#path-9"></use>
                                    </mask>
                                    <g id="Clip-22"></g>
                                    <path d="M9.10697948,0.19008186 C9.10697948,0.19008186 0.0950293511,6.25173289 0.0950293511,13.2028973 L0.0950293511,13.2028973 L0.0950293511,105.460951 L52.9056114,105.460951 L52.9056114,19.2056402 C52.9056114,19.2056402 51.8266324,0.0251389744 32.9217308,0.0251389744 L32.9217308,0.0251389744 C14.0188091,0.0251389744 9.10697948,0.19008186 9.10697948,0.19008186" id="Fill-21" fill="#EC515D" mask="url(#mask-10)"></path>
                                </g>
                                <g id="Group-38" transform="translate(16.339196, -0.189091)">
                                    <polygon id="Fill-24" fill="#D33F4B" points="32.2924636 159.699336 32.2924636 77.4490359 30.5157358 77.5055626 30.5157358 159.699336"></polygon>
                                    <path d="M59.4460843,31.8518414 L59.4460843,55.7762953 C59.4460843,55.7762953 55.3485685,61.2379475 47.9465398,61.2379475 C40.544511,61.2379475 40.544511,56.0569798 40.544511,56.0569798 L40.544511,40.7245898 L51.4999954,37.9528305 L59.4460843,31.8518414 Z" id="Fill-26" fill="#F39F85"></path>
                                    <path d="M39.6013396,45.2695343 C37.3227113,45.2013124 35.2107139,44.8387616 34.1065328,43.8817055 C27.5336437,33.7107913 35.0199917,6.29727336 35.0199917,6.29727336 L58.8723116,10.4490647 L59.6331928,28.820254 C59.833953,33.7244357 57.6235831,38.4297992 53.6726223,41.491989 C49.4426048,44.0162001 44.5641319,45.4157242 39.6013396,45.2695343" id="Fill-28" fill="#F6B58E"></path>
                                    <path d="M47.6514223,10.9303216 C47.6514223,10.9303216 39.7334398,12.3668804 31.4038989,10.9303216 C23.0763657,9.49181365 28.4045415,0.580081268 28.4045415,0.580081268 C28.4045415,0.580081268 34.5698874,3.31285659 45.5233641,1.74180316 C52.9173624,0.681439554 54.9048885,-0.712236879 59.6448369,1.74180316 C66.0852242,5.07493141 64.5273251,16.3783295 64.5273251,16.3783295 L60.975877,40.2930374 L59.6448369,40.2930374 C59.6448369,40.2930374 59.3196054,26.0736394 59.3196054,21.231832 C57.9263295,19.0272893 56.4146052,19.0272893 55.2542112,19.5789123 C53.9934371,20.177316 53.2767232,21.5027705 53.2767232,22.8652598 L53.2767232,47.6941415 C53.2767232,47.6941415 36.9910554,54.508537 32.8473648,53.2746948 C28.7016666,52.0389034 31.4721574,33.6404253 31.4721574,33.6404253 C31.4721574,33.6404253 36.2502503,31.6288532 39.9522684,35.6539466 C43.6201574,39.6420053 48.0730187,35.4941124 48.0730187,35.4941124 L47.6514223,10.9303216 Z" id="Fill-30" fill="#212B53"></path>
                                    <path d="M0.27663155,71.3869493 L0.792585275,68.5382158 C1.93691844,62.2311767 7.8914661,54.385984 13.8921886,52.3256304 L20.1137473,52.3276623 L18.1864494,65.7809181 L9.40720564,71.3869493 L0.27663155,71.3869493 Z" id="Fill-32" fill="#F6B58E"></path>
                                    <path d="M57.3226436,18.9545842 C55.4917105,18.8064452 53.7350588,20.5080949 53.395774,22.7535708 C53.0584969,24.9990466 54.2670733,26.9384985 56.0980064,27.0866375 C57.9269318,27.2328273 59.6855912,25.5331268 60.0228684,23.287651 C60.3621531,21.0421751 59.1515691,19.1027233 57.3226436,18.9545842" id="Fill-34" fill="#F6B58E"></path>
                                    <path d="M15.6237454,63.8013376 L3.50184423,70.6118347 C3.50184423,70.6118347 11.1086484,70.535816 11.2311121,70.6118347 L24.0616968,60.1875248 C24.0616968,60.1875248 23.1301694,58.3669741 20.2231616,59.9048912 C17.3161539,61.4428082 15.6237454,63.8013376 15.6237454,63.8013376" id="Fill-36" fill="#F6B58E"></path>
                                </g>
                                <g id="Group-41" transform="translate(76.339196, 60.810909)">
                                    <mask id="mask-12" fill="white">
                                        <use xlink:href="#path-11"></use>
                                    </mask>
                                    <g id="Clip-40"></g>
                                    <path d="M0.223136542,20.8713831 C0.223136542,20.8713831 22.7595677,37.3398624 22.7595677,48.5688091 L22.7595677,48.5688091 C22.7595677,59.7996836 11.7888893,102.018596 11.7888893,102.018596 L11.7888893,102.018596 L23.9436853,105.430653 C23.9436853,105.430653 48.5548353,71.3139323 48.5548353,51.9558065 L48.5548353,51.9558065 C48.5548353,32.5996083 18.2361984,0.30265144 18.2361984,0.30265144 L18.2361984,0.30265144 L0.223136542,20.8713831 Z" id="Fill-39" fill="#EC515D" mask="url(#mask-12)"></path>
                                </g>
                                <g id="Group-68" transform="translate(-0.660804, 16.810909)">
                                    <path d="M99.1651564,92.0566752 C99.1651564,101.801664 90.3065454,137.430321 88.2231054,145.729881 C88.8337688,145.887246 89.0852185,145.933873 90.0111918,146.168949 C92.5715878,135.914952 100.931291,101.634585 100.931291,92.0566752 C100.931291,80.446617 79.1409835,64.1486287 78.2150102,63.4608843 L77.1433557,64.8266592 C77.3628753,64.9898528 99.1651564,81.2897839 99.1651564,92.0566752" id="Fill-42" fill="#D33F4B"></path>
                                    <path d="M40.3642544,25.1682858 C40.3642544,25.1682858 42.8488165,37.7769333 34.8523185,47.9007642 C34.3574017,48.5263396 33.5152449,48.9984353 32.6012454,49.1188877 C30.7453075,49.3636781 29.4441553,48.726446 28.4383567,48.4486284 C26.961589,48.0367588 26.2571308,47.3023877 25.9178733,46.6904117 C25.6305023,46.1678037 25.7143189,45.544171 26.0954846,44.9924213 C27.7159379,42.6397137 32.7269702,34.5538599 30.4459627,27.3966554 C34.7146198,24.0414729 40.3642544,25.1682858 40.3642544,25.1682858" id="Fill-44" fill="#F49B42"></path>
                                    <path d="M27.3291844,48.0081999 C26.4131892,47.5613604 26.2315867,47.2602293 25.9182725,46.6909946 C25.6309014,46.1683865 25.7127224,45.5447539 26.0938881,44.9910613 C27.716337,42.6383538 32.7273694,34.5525 30.4463618,27.3972382 C31.9530641,26.2101992 33.6333863,25.5904521 35.17601,25.2776644 C35.4314509,33.1381556 33.7012378,38.3914349 27.3291844,48.0081999" id="Fill-46" fill="#F9B645"></path>
                                    <path d="M33.2216874,35.5650774 C32.8405217,37.3699207 31.9404916,38.7143251 31.2140815,38.5686165 C30.4836801,38.4229079 30.202296,36.8414844 30.5834617,35.036641 C30.9646275,33.2317976 31.8626619,31.8873933 32.5930633,32.0331018 C33.321469,32.1788104 33.6028532,33.760234 33.2216874,35.5650774" id="Fill-48" fill="#F49B42"></path>
                                    <polygon id="Fill-50" fill="#F49B42" points="32.7373475 32.0855569 31.9710248 31.9087639 32.0269025 32.2856633 32.5377843 32.4799414"></polygon>
                                    <polygon id="Fill-52" fill="#E7375E" points="31.3869032 38.5732792 30.4589343 38.3984289 31.5146237 38.2488348"></polygon>
                                    <path d="M32.6010458,35.4409337 C32.2198801,37.245777 31.31985,38.5901814 30.5914443,38.4444728 C29.8630385,38.2987643 29.5796588,36.7173407 29.9608245,34.9144401 C30.3419902,33.1076539 31.2420203,31.7632496 31.9704261,31.9089581 C32.6988318,32.0546667 32.9802159,33.6360903 32.6010458,35.4409337" id="Fill-54" fill="#FED147"></path>
                                    <path d="M43.6149396,14.5416633 L45.0418166,14.5416633 C47.7698458,14.5416633 50.0009625,16.6107249 50.0009625,19.1402255 L50.0009625,22.7926534 C50.0009625,25.3202113 47.7698458,27.3912156 45.0418166,27.3912156 L43.6149396,27.3912156 L43.6149396,14.5416633 Z" id="Fill-56" fill="#FED147"></path>
                                    <path d="M0.000399126429,18.1589269 C0.000399126429,28.1273353 2.35324942,36.2093035 5.25689419,36.2093035 C8.1625346,36.2093035 10.5173805,28.1273353 10.5173805,18.1589269 C10.5173805,8.19051852 8.1625346,0.108550322 5.25689419,0.108550322 C2.35324942,0.108550322 0.000399126429,8.19051852 0.000399126429,18.1589269" id="Fill-58" fill="#212B53"></path>
                                    <polygon id="Fill-60" fill="#FEFEFE" points="10.7474769 11.5070397 6.59057516 14.1375649 6.59057516 19.977564 10.8751974 23.7621011 12.3579521 16.1677708"></polygon>
                                    <path d="M10.5163827,18.1589269 C10.5163827,9.78165601 8.8520255,2.75656058 6.59696118,0.72052628 C6.60095244,0.718583499 6.60494371,0.712755156 6.60693934,0.710812376 C24.0248167,12.9445032 44.4441248,14.6696926 44.4441248,14.6696926 L44.4441248,27.4104492 C44.4441248,27.4104492 16.8305628,25.8989657 6.60693934,35.6070414 C6.60294808,35.6050986 6.59696118,35.6031559 6.59097428,35.6012131 C8.84803424,33.5710071 10.5163827,26.5420261 10.5163827,18.1589269" id="Fill-62" fill="#FDBF4E"></path>
                                    <path d="M6.02441432,17.046102 C6.02441432,18.6644385 6.2778596,19.9777583 6.59117385,19.9777583 C6.90448809,19.9777583 7.15992901,18.6644385 7.15992901,17.046102 C7.15992901,15.4277656 6.90448809,14.1144458 6.59117385,14.1144458 C6.2778596,14.1144458 6.02441432,15.4277656 6.02441432,17.046102" id="Fill-64" fill="#FED147"></path>
                                    <path d="M23.7434326,43.9196177 C24.1685022,44.0730974 25.6612351,44.9881472 30.4746998,44.9881472 C33.9770342,44.9881472 35.5535836,40.7956262 36.1522732,38.5167443 C36.3638102,37.712433 36.549404,36.5739634 35.5196578,36.0610693 L29.8899796,35.301442 L23.7434326,43.9196177 Z" id="Fill-66" fill="#F6B58E"></path>
                                </g>
                            </g>
                            <g id="person-copy" transform="translate(6.339196, 0.189091)">
                                <mask id="mask-14" fill="white">
                                    <use xlink:href="#path-13"></use>
                                </mask>
                                <g id="Mask"></g>
                                <g mask="url(#mask-14)">
                                    <g transform="translate(58.160804, 180.310909) scale(-1, 1) translate(-58.160804, -180.310909) translate(-4.339196, 4.810909)">
                                        <g id="Group-15" stroke-width="1" fill="none" transform="translate(24.416708, 158.816838)">
                                            <polygon id="Fill-11" fill="#212B53" points="22.1636559 0.231689366 22.1636559 168.539842 39.0964224 168.539842 55.8491163 0.231689366"></polygon>
                                            <path d="M36.956526,0.191292178 C36.956526,0.191292178 41.8303608,47.844585 53.0205904,79.6025461 C64.21082,111.358583 81.4839437,168.539842 81.4839437,168.539842 L98.9054789,168.539842 C98.9054789,168.539842 74.7124201,49.2507919 80.2452021,0.191292178 L36.956526,0.191292178 Z" id="Fill-13" fill="#12375A"></path>
                                        </g>
                                        <g id="Group-18" stroke-width="1" fill="none" transform="translate(4.725814, 63.218353)">
                                            <mask id="mask-16" fill="white">
                                                <use xlink:href="#path-15"></use>
                                            </mask>
                                            <g id="Clip-17"></g>
                                            <path d="M22.4001102,39.3644807 C18.9156002,39.3644807 23.7080325,7.36394124 23.7080325,7.36394124 L23.7080325,7.36394124 L9.32679608,7.36394124 C9.32679608,7.36394124 -8.75562418,62.2096155 5.62364247,72.2325569 L5.62364247,72.2325569 C20.0029091,82.2554983 51.5959308,43.8698883 51.5959308,43.8698883 L51.5959308,43.8698883 L43.9296149,0.173025388 C43.9296149,0.173025388 26.7591947,39.3644807 22.4001102,39.3644807" id="Fill-16" fill="#EC515D" mask="url(#mask-16)"></path>
                                        </g>
                                        <path d="M100.02974,163.52422 L94.8991742,176.037394 C92.4290459,180.953763 83.3505473,181.0783 77.3228127,179.516788 C76.4159338,179.28304 76.0994,178.17178 76.7305256,177.489696 C80.0415074,173.90684 88.6325828,164.725531 91.6114955,162.671615 L100.02974,163.52422 Z" id="Fill-19" fill="#F6B58E"></path>
                                        <g id="Group-23" stroke-width="1" fill="none" transform="translate(47.258145, 53.966887)">
                                            <mask id="mask-18" fill="white">
                                                <use xlink:href="#path-17"></use>
                                            </mask>
                                            <g id="Clip-22"></g>
                                            <path d="M9.05882766,0.190059818 C9.05882766,0.190059818 0.0945268973,6.25100793 0.0945268973,13.2013663 L0.0945268973,13.2013663 L0.0945268973,105.448722 L52.6258808,105.448722 L52.6258808,19.2034131 C52.6258808,19.2034131 51.5526066,0.0251360593 32.747662,0.0251360593 L32.747662,0.0251360593 C13.9446867,0.0251360593 9.05882766,0.190059818 9.05882766,0.190059818" id="Fill-21" fill="#EC515D" mask="url(#mask-18)"></path>
                                        </g>
                                        <g id="Group-38" stroke-width="1" fill="none" transform="translate(16.540351, 0.000000)">
                                            <polygon id="Fill-24" fill="#D33F4B" points="32.0712954 158.682812 32.0712954 76.9560545 30.3067362 77.0122214 30.3067362 158.682812"></polygon>
                                            <path d="M59.0389433,31.6490969 L59.0389433,55.421266 C59.0389433,55.421266 54.969491,60.8481536 47.6181581,60.8481536 C40.2668253,60.8481536 40.2668253,55.7001639 40.2668253,55.7001639 L40.2668253,40.4653682 L51.1472764,37.7112518 L59.0389433,31.6490969 Z" id="Fill-26" fill="#E99C72"></path>
                                            <path d="M39.3301135,44.9813831 C37.0670913,44.9135954 34.9695589,44.5533523 33.8729402,43.6023881 C27.3450682,33.4962142 34.7801429,6.25718973 34.7801429,6.25718973 L58.4691003,10.3825539 L59.2247703,28.6368063 C59.4241555,33.5097717 57.2289243,38.1851845 53.3050232,41.2278827 C49.1039768,43.7360267 44.258916,45.1266424 39.3301135,44.9813831" id="Fill-28" fill="#F6B58E"></path>
                                            <path d="M33.4957681,23.5738111 C33.4957681,23.5738111 27.4669943,28.945172 26.7352005,29.4653472 C26.0034054,29.9852609 29.0204766,32.4847083 29.5556048,32.6835121 C30.0907329,32.8823159 34.8748702,22.8850428 33.4957681,23.5738111" id="Fill-196" fill="#E99C72" transform="translate(30.182895, 28.113110) rotate(-18.000000) translate(-30.182895, -28.113110) "></path>
                                            <path d="M47.3250619,10.8607476 C47.3250619,10.8607476 39.461309,12.2881623 31.1888164,10.8607476 C22.9183177,9.43139602 28.2100013,0.576388914 28.2100013,0.576388914 C28.2100013,0.576388914 34.3331212,3.29176948 45.2115786,1.73071617 C52.5549361,0.67710203 54.5288497,-0.707703324 59.2363346,1.73071617 C65.6326123,5.04262828 64.0853831,16.2740776 64.0853831,16.2740776 L60.5582586,40.0365627 L59.2363346,40.0365627 C59.2363346,40.0365627 58.9133306,25.9076745 58.9133306,21.0966864 C57.5295972,18.9061761 56.0282265,18.9061761 54.87578,19.4542879 C53.6236408,20.0488827 52.9118356,21.3659003 52.9118356,22.719717 L52.9118356,47.390557 C52.9118356,47.390557 36.7377069,54.1615773 32.6223961,52.9355888 C28.5050914,51.7076635 31.2566074,33.4262961 31.2566074,33.4262961 C31.2566074,33.4262961 36.0019755,31.4275281 39.6786389,35.4270009 C43.3214067,39.3896746 47.7437708,35.268184 47.7437708,35.268184 L47.3250619,10.8607476 Z" id="Fill-30" fill="#212B53"></path>
                                            <path d="M0.274736925,70.9325546 L0.787156928,68.1019539 C1.92365266,61.8350606 7.83741814,54.0398044 13.7970422,51.9925654 L19.97599,51.9945844 L18.061892,65.3622071 L9.34277652,70.9325546 L0.274736925,70.9325546 Z" id="Fill-32" fill="#F6B58E"></path>
                                            <path d="M56.9300458,18.8339339 C55.1116527,18.6867378 53.3670321,20.377556 53.030071,22.6087389 C52.6951039,24.8399218 53.8954029,26.7670286 55.713796,26.9142247 C57.5301953,27.059484 59.2768098,25.3706025 59.611777,23.1394196 C59.948738,20.9082367 58.7464452,18.9811299 56.9300458,18.8339339" id="Fill-34" fill="#F6B58E"></path>
                                            <path d="M15.5167397,63.395227 L3.47786041,70.1623738 C3.47786041,70.1623738 11.0325662,70.0868389 11.1541912,70.1623738 L23.8969003,59.8044171 C23.8969003,59.8044171 22.9717529,57.9954545 20.084655,59.5235824 C17.1975571,61.0517103 15.5167397,63.395227 15.5167397,63.395227" id="Fill-36" fill="#F6B58E"></path>
                                        </g>
                                        <g id="Group-41" stroke-width="1" fill="none" transform="translate(76.400667, 60.134531)">
                                            <mask id="mask-20" fill="white">
                                                <use xlink:href="#path-19"></use>
                                            </mask>
                                            <g id="Clip-40"></g>
                                            <path d="M0.220477645,20.8689628 C0.220477645,20.8689628 22.4883645,37.3355324 22.4883645,48.5631771 L22.4883645,48.5631771 C22.4883645,59.7927492 11.6484128,102.006766 11.6484128,102.006766 L11.6484128,102.006766 L23.6583721,105.418428 C23.6583721,105.418428 47.9762554,71.3056627 47.9762554,51.9497817 L47.9762554,51.9497817 C47.9762554,32.595828 18.0188957,0.302616345 18.0188957,0.302616345 L18.0188957,0.302616345 L0.220477645,20.8689628 Z" id="Fill-39" fill="#EC515D" mask="url(#mask-20)"></path>
                                        </g>
                                        <g id="Group-68" stroke-width="1" fill="none" transform="translate(0.000000, 16.961022)">
                                            <path d="M98.2422058,91.5951627 C98.2422058,101.291296 89.4660436,136.741335 87.4019947,144.999286 C88.0069746,145.155862 88.2560839,145.202255 89.173439,145.436153 C91.7100049,135.233563 99.9919025,101.125055 99.9919025,91.5951627 C99.9919025,80.0433098 78.404402,63.8270291 77.4870469,63.1427326 L76.4253666,64.5016604 C76.642843,64.6640358 98.2422058,80.8822496 98.2422058,91.5951627" id="Fill-42" fill="#D33F4B"></path>
                                            <path d="M39.988576,25.0421084 C39.988576,25.0421084 42.4500137,37.5875443 34.5279407,47.6606208 C34.0376302,48.28306 33.2033116,48.7527889 32.2978189,48.8726375 C30.4591546,49.1162007 29.1701125,48.4821632 28.1736751,48.2057384 C26.7106519,47.7959337 26.0127503,47.0652442 25.6766503,46.4563363 C25.3919539,45.9363482 25.4749904,45.3158421 25.8526085,44.7668585 C27.4579799,42.4259458 32.4223735,34.3806293 30.1625958,27.2593063 C34.3915237,23.9209446 39.988576,25.0421084 39.988576,25.0421084" id="Fill-44" fill="#F5CFCD"></path>
                                            <path d="M27.074826,47.767518 C26.1673562,47.3229185 25.9874439,47.0232972 25.6770457,46.4569162 C25.3923493,45.9369282 25.4734087,45.316422 25.8510269,44.7655053 C27.4583754,42.4245927 32.4227689,34.3792762 30.1629912,27.2598863 C31.6556703,26.0787982 33.3203535,25.4621582 34.8486196,25.1509386 C35.1016831,32.9720223 33.3875734,38.1989651 27.074826,47.767518" id="Fill-46" fill="#EFAFAC"></path>
                                            <path d="M32.9124863,35.3867771 C32.5348682,37.1825722 31.6432148,38.5202365 30.9235656,38.3752585 C30.1999622,38.2302804 29.921197,36.656785 30.2988151,34.86099 C30.6764333,33.0651949 31.5661096,31.7275306 32.2897129,31.8725086 C33.0113392,32.0174867 33.2901045,33.5909821 32.9124863,35.3867771" id="Fill-48" fill="#EFAFAC"></path>
                                            <polygon id="Fill-50" fill="#F5CFCD" points="32.4326542 31.9247007 31.6734638 31.748794 31.7288215 32.123804 32.2349484 32.3171081"></polygon>
                                            <polygon id="Fill-52" fill="#E7375E" points="31.0947788 38.3798978 30.1754467 38.2059241 31.2213106 38.0570799"></polygon>
                                            <path d="M32.2976212,35.2632558 C31.920003,37.0590509 31.0283497,38.3967152 30.3067234,38.2517372 C29.5850971,38.1067591 29.3043548,36.5332637 29.6819729,34.7394017 C30.0595911,32.9416736 30.9512444,31.6040092 31.6728707,31.7489873 C32.394497,31.8939654 32.6732622,33.4674607 32.2976212,35.2632558" id="Fill-54" fill="#F6B58E"></path>
                                            <path d="M43.2090064,14.4687608 L44.6226031,14.4687608 C47.3252419,14.4687608 49.5355932,16.5274495 49.5355932,19.0442688 L49.5355932,22.6783858 C49.5355932,25.1932722 47.3252419,27.2538938 44.6226031,27.2538938 L43.2090064,27.2538938 L43.2090064,14.4687608 Z" id="Fill-56" fill="#EFAFAC"></path>
                                            <path d="M0.000395411677,18.0678898 C0.000395411677,27.9863231 2.33134725,36.0277735 5.20796719,36.0277735 C8.0865642,36.0277735 10.4194931,27.9863231 10.4194931,18.0678898 C10.4194931,8.14945658 8.0865642,0.108006121 5.20796719,0.108006121 C2.33134725,0.108006121 0.000395411677,8.14945658 0.000395411677,18.0678898" id="Fill-58" fill="#212B53"></path>
                                            <polygon id="Fill-60" fill="#FEFEFE" points="10.6474479 11.4493508 6.52923531 14.0666883 6.52923531 19.8774095 10.7739797 23.6429733 12.242934 16.0867161"></polygon>
                                            <path d="M10.4185046,18.0678898 C10.4185046,9.73261713 8.76963787,2.74274097 6.5355619,0.716914028 C6.53951601,0.714980987 6.54347013,0.709181864 6.54544719,0.707248823 C23.8012128,12.8796078 44.0304741,14.5961482 44.0304741,14.5961482 L44.0304741,27.2730309 C44.0304741,27.2730309 16.6739173,25.7691251 6.54544719,35.4285308 C6.54149307,35.4265978 6.5355619,35.4246647 6.52963072,35.4227317 C8.76568375,33.4027039 10.4185046,26.4089616 10.4185046,18.0678898" id="Fill-62" fill="#F5CFCD"></path>
                                            <path d="M5.96834385,16.9606439 C5.96834385,18.5708671 6.21943026,19.8776028 6.52982843,19.8776028 C6.84022659,19.8776028 7.09329007,18.5708671 7.09329007,16.9606439 C7.09329007,15.3504208 6.84022659,14.0436851 6.52982843,14.0436851 C6.21943026,14.0436851 5.96834385,15.3504208 5.96834385,16.9606439" id="Fill-64" fill="#EFAFAC"></path>
                                            <path d="M23.5224475,43.6994332 C23.943561,43.8521435 25.4224006,44.7626058 30.1910654,44.7626058 C33.6608029,44.7626058 35.222679,40.5911033 35.8157965,38.3236463 C36.0253647,37.5233673 36.2092312,36.3906053 35.189069,35.8802825 L29.6117873,35.1244635 L23.5224475,43.6994332 Z" id="Fill-66" fill="#F6B58E"></path>
                                        </g>
                                    </g>
                                </g>
                            </g>
                        </g>
                    </g>
                </g>
            </g>
        </g>
    </g>
</svg>