<?xml version="1.0" encoding="UTF-8"?>
<svg width="350px" height="273px" viewBox="0 0 350 273" version="1.1" xmlns="http://www.w3.org/2000/svg" xmlns:xlink="http://www.w3.org/1999/xlink">
    <!-- Generator: Sketch 52 (66869) - http://www.bohemiancoding.com/sketch -->
    <title>Marketing [Order] [Red]</title>
    <desc>Created with Sketch.</desc>
    <defs>
        <path d="M226.826604,230.545756 C326.965069,207.247123 392.851743,145.869458 317.291173,40.6856325 C241.730107,-64.4979626 141.71952,68.2551147 68.3870297,61.7104824 C-4.94521292,55.1658501 -41.0327952,197.456167 73.3542047,231.235827 C109.923367,242.034977 126.688386,253.84439 226.826604,230.545756 Z" id="path-1"></path>
        <polygon id="path-3" points="57.4401753 34.3919388 57.4401753 0.279072772 0.112246289 0.279072772 0.112246289 34.3919388 57.4401753 34.3919388"></polygon>
        <polygon id="path-5" points="7.91849993e-20 0.183773002 7.91849993e-20 10.8375006 14.6307176 10.8375006 14.6307176 0.183773002 0 0.183773002"></polygon>
        <polygon id="path-7" points="11.7407711 0.244951152 0.392971276 0.244951152 0.392971276 16.7901138 11.7407711 16.7901138 11.7407711 0.244951152"></polygon>
        <polygon id="path-9" points="36.2154615 21.3875896 0.068148745 21.3875896 0.068148745 0.324972542 36.2154615 0.324972542 36.2154615 21.3875896"></polygon>
    </defs>
    <g id="Symbols" stroke="none" stroke-width="1" fill="none" fill-rule="evenodd">
        <g id="Intro-Orders" transform="translate(-44.000000, -3.000000)">
            <g id="illustration">
                <g>
                    <g id="Marketing-[Order]-[Red]" transform="translate(44.000000, 3.000000)">
                        <mask id="mask-2" fill="white">
                            <use xlink:href="#path-1"></use>
                        </mask>
                        <use id="Fill-1" fill="#DEEDFD" xlink:href="#path-1"></use>
                        <g id="sofa" mask="url(#mask-2)">
                            <g transform="translate(13.000000, 68.000000)">
                                <path d="M27.4782609,0 L273.521739,0 C284.567434,-2.02906125e-15 293.521739,8.954305 293.521739,20 L293.521739,95.8116883 C293.521739,106.857383 284.567434,115.811688 273.521739,115.811688 L27.4782609,115.811688 C16.4325659,115.811688 7.47826087,106.857383 7.47826087,95.8116883 L7.47826087,20 C7.47826087,8.954305 16.4325659,2.02906125e-15 27.4782609,0 Z" id="Rectangle-2" fill="#C4DCF6"></path>
                                <path d="M22.5431959,98.8636364 L278.456804,98.8636364 C286.776938,98.8636364 293.521739,105.608438 293.521739,113.928571 L293.521739,113.928571 C293.521739,122.248705 286.776938,128.993506 278.456804,128.993506 L22.5431959,128.993506 C14.223062,128.993506 7.47826087,122.248705 7.47826087,113.928571 L7.47826087,113.928571 C7.47826087,105.608438 14.223062,98.8636364 22.5431959,98.8636364 Z" id="Rectangle-2-Copy" fill="#D6E8FC"></path>
                                <path d="M14.06917,124.285714 L286.93083,124.285714 C290.570889,124.285714 293.521739,127.236565 293.521739,130.876623 L293.521739,130.876623 C293.521739,134.516682 290.570889,137.467532 286.93083,137.467532 L14.06917,137.467532 C10.4291114,137.467532 7.47826087,134.516682 7.47826087,130.876623 L7.47826087,130.876623 C7.47826087,127.236565 10.4291114,124.285714 14.06917,124.285714 Z" id="Rectangle-2-Copy-2" fill="#C4DCF6"></path>
                                <path d="M5,68.7337662 L10.8913043,68.7337662 C13.6527281,68.7337662 15.8913043,70.9723425 15.8913043,73.7337662 L15.8913043,140 C15.8913043,142.761424 13.6527281,145 10.8913043,145 L5,145 C2.23857625,145 3.38176876e-16,142.761424 0,140 L0,73.7337662 C-3.38176876e-16,70.9723425 2.23857625,68.7337662 5,68.7337662 Z" id="Rectangle-3" fill="#ADCBEB"></path>
                                <path d="M290.108696,68.7337662 L296,68.7337662 C298.761424,68.7337662 301,70.9723425 301,73.7337662 L301,140 C301,142.761424 298.761424,145 296,145 L290.108696,145 C287.347272,145 285.108696,142.761424 285.108696,140 L285.108696,73.7337662 C285.108696,70.9723425 287.347272,68.7337662 290.108696,68.7337662 Z" id="Rectangle-3-Copy" fill="#ADCBEB"></path>
                                <path d="M216.912044,4.11488514 C219.447128,3.4096906 221.22262,4.21460015 222.23852,6.52961377 C223.76237,10.0021342 228.724913,9.79488954 230.288889,11.2109052 C231.852865,12.6269208 237.198937,17.1009675 243.57615,16.6752251 C249.953364,16.2494826 253.887565,14.6834256 261.119553,11.2109052 C268.351541,7.73838473 274.50013,7.55645954 277.162435,5.28051919 C278.937305,3.76322563 280.307494,2.38909656 281.273003,1.15813198 L218.859549,1.15813198 L216.912044,4.11488514 Z" id="Path-7" fill="#ADCAE9" opacity="0.400000006"></path>
                            </g>
                        </g>
                        <g id="lady" transform="translate(43.000000, 0.000000)">
                            <g id="leg" transform="translate(215.161827, 221.408195) rotate(-26.000000) translate(-215.161827, -221.408195) translate(193.661827, 191.908195)">
                                <path d="M9.19064744,0 L23.0989462,-5.68434189e-14 C23.0989462,12.2997214 23.0989462,20.532571 23.0989462,24.6985487 C23.0989462,30.9475153 35.3248973,35.7687665 34.2015959,37.3006313 C33.0782945,38.832496 29.5692485,40.3643607 23.2857573,38.832496 C17.0022661,37.3006313 12.2969965,27.1481727 12.2969965,24.6985487 C12.2969965,23.065466 11.2615468,14.8326165 9.19064744,0 Z" fill="#F6B58E"></path>
                                <path d="M25.5552908,21.085363 C27.6012476,24.8667572 28.911727,31.32387 30.4044341,34.2331993 C31.8975516,37.1425286 34.5419045,42.2962325 34.5419045,42.2962325 L33.2864217,42.9314252 L28.0830837,32.7907656 C28.0830837,32.7907656 26.3753152,29.2572515 24.8690642,30.0196458 C23.3632236,30.7824478 23.6070146,35.1615265 25.3623922,39.4044342 C27.1177697,43.6465266 26.6383961,46.821267 21.6197483,49.5720019 C16.6002797,52.3227369 9.36124553,55.8839744 8.29537798,53.8055326 C7.2286896,51.7274985 9.77974131,44.1688561 10.359258,43.0374956 C10.9387748,41.9065428 16.1151602,43.5629486 17.4601151,38.4838533 C18.80507,33.404758 19.5569642,18.8030724 21.6456049,18.148718 C21.6456049,18.148718 23.5097445,17.3043765 25.5552908,21.085363 Z" id="shoe" fill="#2D3059" transform="translate(21.289734, 36.248400) scale(-1, 1) rotate(32.000000) translate(-21.289734, -36.248400) "></path>
                            </g>
                            <g id="leg-copy" transform="translate(144.145389, 223.967820)">
                                <path d="M9.19064744,0 L23.0989462,-5.68434189e-14 C23.0989462,12.2997214 23.0989462,20.532571 23.0989462,24.6985487 C23.0989462,30.9475153 35.3248973,35.7687665 34.2015959,37.3006313 C33.0782945,38.832496 29.5692485,40.3643607 23.2857573,38.832496 C17.0022661,37.3006313 12.2969965,27.1481727 12.2969965,24.6985487 C12.2969965,23.065466 11.2615468,14.8326165 9.19064744,0 Z" id="leg" fill="#F6B58E"></path>
                                <path d="M25.5552908,21.085363 C27.6012476,24.8667572 28.911727,31.32387 30.4044341,34.2331993 C31.8975516,37.1425286 34.5419045,42.2962325 34.5419045,42.2962325 L33.2864217,42.9314252 L28.0830837,32.7907656 C28.0830837,32.7907656 26.3753152,29.2572515 24.8690642,30.0196458 C23.3632236,30.7824478 23.6070146,35.1615265 25.3623922,39.4044342 C27.1177697,43.6465266 26.6383961,46.821267 21.6197483,49.5720019 C16.6002797,52.3227369 9.36124553,55.8839744 8.29537798,53.8055326 C7.2286896,51.7274985 9.77974131,44.1688561 10.359258,43.0374956 C10.9387748,41.9065428 16.1151602,43.5629486 17.4601151,38.4838533 C18.80507,33.404758 19.5569642,18.8030724 21.6456049,18.148718 C21.6456049,18.148718 23.5097445,17.3043765 25.5552908,21.085363 Z" id="shoe" fill="#2D3059" transform="translate(21.289734, 36.248400) scale(-1, 1) rotate(32.000000) translate(-21.289734, -36.248400) "></path>
                            </g>
                            <path d="M144.376611,142.051445 C160.31556,133.695534 169.541962,133.695534 172.055815,142.051445 C174.569668,150.407355 172.993565,183.061363 167.327506,240.013468 L155.078264,240.013468 C147.943828,216.335966 144.376611,195.597681 144.376611,177.798615 C144.376611,169.42151 134.176122,173.939504 126.396832,173.939504 C122.007515,173.939504 112.431222,175.225874 97.6679537,177.798615 L144.376611,142.051445 Z" id="Path-3" fill="#212B53"></path>
                            <path d="M54.2369464,3.50002718 C54.2369464,3.50002718 60.7244541,-4.37503397 73.9589697,3.50002718 C87.1934853,11.3750883 79.9274767,28.5689718 83.560481,33.0315065 C87.1934853,37.4940411 98.0924981,42.3503288 101.855253,52.9816614 C105.618007,63.6129939 100.947002,66.1067633 104.061005,74.6380795 C107.175009,83.1693958 111.327014,78.8381121 107.82376,88.4194365 C104.320505,98.0007609 110.159262,103.644555 107.175009,110.207106 C104.190755,116.769657 79.0412832,138.971292 37.0043096,124.009463 C-5.03240449,109.047634 0.520383055,96.3383355 2.07738489,91.7881252 C3.63438673,87.2381774 10.7273086,87.2381774 10.0354808,78.4881969 C9.34339346,69.737954 9.68930737,66.1779013 16.7824887,64.5454012 C23.8754106,62.912901 29.9303312,57.8379491 25.951413,43.1378349 C21.9724949,28.4377208 47.9225255,1.13750883 54.2369464,3.50002718" id="hair" fill="#212B53"></path>
                            <polygon id="Path-6" fill="#DD4652" points="77.5598456 64.0673401 102.103487 81.2446979 142.671815 109.637253 105.544022 120.484848 79.6879511 99.4994828"></polygon>
                            <g id="laptop" transform="translate(111.073359, 48.767677)">
                                <polygon id="Path-9" fill="#212B53" points="0.957528958 65.023569 14.2125724 0 45.96139 2.03199059 34.7654256 60.2974258"></polygon>
                                <polygon id="Path-10" fill="#5D6192" points="14.3629344 0 2.26808417 62.1548822 0 62.1548822 12.1262921 0.183845612"></polygon>
                                <ellipse id="Oval" fill="#5D6192" opacity="0.449999988" transform="translate(27.289575, 33.468013) rotate(-349.000000) translate(-27.289575, -33.468013) " cx="27.2895753" cy="33.4680135" rx="2.39382239" ry="4.78114478"></ellipse>
                            </g>
                            <path d="M18.8515317,166.383838 C4.14421755,122.728743 -1.95749256,93.7334489 0.546401329,79.3979572 C4.30224217,57.8947197 10.1210149,51.3242312 23.0520464,52.6386978 C35.9830779,53.9531645 58.3478327,51.5130606 73.0208996,60.3855693 C87.6939665,69.2580779 88.7446023,74.5040413 93.6755215,88.595081 C96.962801,97.9891075 96.3486867,108.449335 91.8331787,119.975763 L18.8515317,166.383838 Z" id="Path-4" fill="#EC515D"></path>
                            <polygon id="Rectangle-4" fill="#2D3059" points="67.027027 109.010101 113.945946 109.010101 113.945946 114.747475 67.027027 114.747475"></polygon>
                            <path d="M32.3422632,185.331945 C15.3417211,178.609621 11.8347154,166.846199 21.8212459,150.041679 C36.8010418,124.834899 104.575248,109.065179 134.774393,107.915545 C164.973538,106.765912 169.78778,104.77953 177.892088,118.521833 C183.29496,127.683369 193.578035,156.789928 208.741313,205.841511 L197.644595,210.37037 L172.438321,180.601803 C172.438321,164.916211 172.438321,155.437144 172.438321,152.164601 C172.438321,147.255787 161.963669,132.789435 151.442652,139.095 C140.921634,145.400566 104.266148,188.914436 70.6282567,188.914436 C48.2029962,188.914436 35.4409984,187.720272 32.3422632,185.331945 Z" id="Path-2" fill="#233062"></path>
                            <path d="M96.7104247,110.868876 C102.702086,104.116744 107.203919,101.866033 110.215923,104.116744 C113.227927,106.367454 115.497282,108.618165 117.023988,110.868876 L96.7104247,118.507421 L96.7104247,110.868876 Z" id="hand" fill="#E19D75"></path>
                            <path d="M11.7923806,54.5153225 C19.2086842,50.1198643 25.2557369,52.393307 29.9335386,61.3356505 C34.6113403,70.2779939 40.5738903,84.1048724 47.8211887,102.816286 L98.6254826,108.348994 L98.6254826,122.411905 C72.5278879,131.097425 53.5677839,135.226166 41.7451709,134.798127 C24.0112513,134.156069 2.12304914e-13,99.0519897 0,80.1938201 C-1.42036461e-13,67.621707 3.93079352,59.0622078 11.7923806,54.5153225 Z" id="Path-5" fill="#EF606B"></path>
                            <path d="M65.1752737,49.2100179 C66.6233657,52.6744062 70.0334312,52.8639044 75.6447876,53.1448008 C75.6447876,53.1448008 65.1450498,77.2772988 59.3526819,78.6506947 C53.5603139,80.0239033 32.9229863,84.6157376 33.5264787,77.0004504 C34.12979,69.384976 40.919733,61.4223855 42.3075481,60.1738949 C43.6951823,58.9255916 49.3065387,55.4922892 48.8239621,52.3087973 C48.3412044,49.1253054 43.8761938,34.3939774 45.1432742,31.8346372 C46.4103547,29.275297 54.6510842,23.9189782 55.4783067,25.0054853 C57.7958211,25.0054853 63.7271817,45.7456297 65.1752737,49.2100179 Z" id="neck" fill="#F6B58E" transform="translate(54.579151, 53.070707) scale(-1, 1) translate(-54.579151, -53.070707) "></path>
                            <g id="head" transform="translate(63.677606, 27.500000) scale(-1, 1) translate(-63.677606, -27.500000) translate(41.177606, 0.000000)">
                                <path d="M4.19220286,8.19975843 C4.19220286,8.19975843 4.72479293,2.19128885 20.7024951,0.362624201 C36.6801972,-1.46604045 41.6066553,7.1548072 43.8701631,12.902039 C46.133671,18.6492707 44.5359007,28.8459048 42.804983,32.0418882 C41.0740653,35.2378715 39.7425901,41.1157222 39.8757376,42.4219112 C40.0088851,43.7281003 33.2236876,22.8813232 30.4254594,21.3010957 C27.6269649,19.7211295 4.19220286,8.19975843 4.19220286,8.19975843" id="Fill-99" fill="#212B53"></path>
                                <path d="M31.8052299,26.1393758 C31.0698491,25.0121043 23.7440398,30.5693857 22.6176359,33.2247493 C21.5098981,35.8363976 25.3313038,50.6646225 25.8655411,54.2941569 C38.3337061,43.0688488 31.8052299,26.1393758 31.8052299,26.1393758" id="Fill-92" fill="#E99C72"></path>
                                <path d="M1.12980995,17.8220612 C1.12980995,17.8220612 4.72479293,37.1972857 11.3821688,45.9487523 C18.0395447,54.7002188 26.0283958,49.8673194 32.1531816,42.0301851 C38.2779674,34.1930509 34.6829844,19.4331148 29.6233787,14.2083586 C24.5637731,8.98360247 -0.467960266,7.72077891 1.12980995,17.8220612" id="Fill-101" fill="#F6B58E"></path>
                                <path d="M12.3540011,31.1110623 C12.3540011,31.1110623 12.6411744,39.5763092 13.0698352,39.5763092 C13.4984961,39.5763092 15.9125996,39.003009 16.3849242,38.8987726 C16.8572488,38.7945362 13.151285,30.4635457 12.3540011,31.1110623" id="Fill-131" fill="#E99C72"></path>
                                <path d="M36.8132116,29.4747702 C36.8132116,29.4747702 33.7952899,28.8560832 31.4873108,23.7170131 C29.1793318,18.5779429 22.9658697,20.8619741 18.9714442,21.9089169 C14.9770186,22.9558597 14.7993999,22.7654286 14.6220474,22.1944208 C14.4444286,21.623413 13.0242772,16.3415909 12.8911296,16.4843428 C12.7579821,16.6270948 14.0005148,23.8123714 13.6455435,23.859765 C13.2905722,23.9074442 11.6038594,22.5721424 11.0712694,22.978129 C10.5386793,23.3841155 10.7162981,24.478452 9.25167538,24.6688831 C7.78705269,24.8590287 7.20999135,24.6688831 6.05613496,25.3826428 C4.90227857,26.0964025 2.32800446,26.9052351 2.01723815,26.8101623 C1.70673814,26.714804 -2.99789625,13.3438 4.19206971,7.77647396 C11.3820357,2.20914797 18.5720016,2.49465186 25.362525,8.49023371 C32.1530484,14.4858156 37.2126541,20.4813974 36.8132116,29.4747702" id="Fill-103" fill="#212B53"></path>
                                <path d="M36.5027115,21.2181527 C39.4761619,21.9582394 38.8104243,27.7490979 38.4999243,28.6198035 C38.189158,29.4907704 36.2806215,33.1480997 34.6386463,31.7112917 C32.9964048,30.2744838 33.5289949,20.478066 36.5027115,21.2181527" id="Fill-105" fill="#F6B58E"></path>
                            </g>
                        </g>
                        <g id="cat" transform="translate(216.000000, 41.000000)">
                            <g id="Group-3" transform="translate(21.133830, 0.497386)">
                                <mask id="mask-4" fill="white">
                                    <use xlink:href="#path-3"></use>
                                </mask>
                                <g id="Clip-2"></g>
                                <path d="M1.63981301,30.193488 C1.63981301,30.193488 0.112246289,31.5825665 0.112246289,34.3919388 L16.1904331,34.3919388 L37.6124421,33.0778969 L57.4406484,28.9736922 C57.4406484,28.9736922 55.1998624,26.1733244 54.0797651,22.2852252 C53.2435361,19.3840081 52.0370955,13.2928329 49.5987844,10.4168281 C47.4638577,7.89799778 40.3736535,0.273073383 34.9701006,0.279076315 C27.1808705,0.288681006 4.32887452,12.787386 4.32887452,12.787386 L1.63981301,30.193488 Z" id="Fill-1" fill="#FFFFFF" mask="url(#mask-4)"></path>
                            </g>
                            <path d="M22.6448754,30.6623613 C22.6448754,30.6623613 21.1338297,32.0369464 21.1338297,34.8170064 L37.0381275,34.8170064 L58.228453,33.5166749 L62.4527122,32.6422629 C63.478796,28.4151461 63.8929734,23.8488383 63.8929734,23.8488383 L58.1570835,18.3356468 C58.1570835,18.3356468 53.7245655,21.6449874 49.4874364,20.0999156 C45.7300044,18.7294886 38.5099785,12.8218612 34.0224709,8.9529445 C29.0558513,11.386091 25.3048542,13.4378702 25.3048542,13.4378702 L22.6448754,30.6623613 Z" id="Fill-4" fill="#E4EAEA"></path>
                            <g id="Group-8" transform="translate(0.000000, 13.429417)">
                                <mask id="mask-6" fill="white">
                                    <use xlink:href="#path-5"></use>
                                </mask>
                                <g id="Clip-7"></g>
                                <path d="M13.5924482,0.183773002 L11.9184798,0.525421785 C11.9184798,0.525421785 7.64562429,2.39172386 6.04118546,2.58808072 C4.43674663,2.78443758 -0.000292141083,1.88472193 -0.000292141083,1.88472193 C-0.000292141083,1.88472193 4.53081606,7.59670052 5.75780861,8.57909275 C6.98480116,9.56087706 14.6307176,10.8375006 14.6307176,10.8375006 L13.5924482,0.183773002 Z" id="Fill-6" fill="#E8C3BA" mask="url(#mask-6)"></path>
                            </g>
                            <g id="Group-11" transform="translate(30.963518, 0.000000)">
                                <mask id="mask-8" fill="white">
                                    <use xlink:href="#path-7"></use>
                                </mask>
                                <g id="Clip-10"></g>
                                <path d="M0.392971276,6.97050726 L2.48905399,5.4427068 C2.48905399,5.4427068 7.82480535,3.43817989 9.25384542,2.2769078 C10.6834753,1.11563571 11.1594288,0.244831372 11.1594288,0.244831372 C11.1594288,0.244831372 11.8264714,9.85482206 11.7315166,11.0005227 C11.6359721,12.1456244 9.06334607,16.7901138 9.06334607,16.7901138 L0.392971276,6.97050726 Z" id="Fill-9" fill="#E8C3BA" mask="url(#mask-8)"></path>
                            </g>
                            <path d="M37.8442996,3.48170064 C35.7357614,4.45065734 33.1293401,5.39746989 33.1293401,5.39746989 L30.9635179,6.92422007 L34.6321306,10.9424877 C35.0891837,8.54613031 36.0154779,4.98510968 37.8442996,3.48170064" id="Fill-12" fill="#FFFFFF"></path>
                            <path d="M12.518785,13.7529894 C12.518785,13.7529894 8.06302523,15.5199725 6.38929734,15.7065161 C6.38929734,15.7065161 11.5030935,15.9494835 14.7445323,17.905889 L14.2644094,13.4294167 L12.518785,13.7529894 Z" id="Fill-14" fill="#FFFFFF"></path>
                            <path d="M13.9799997,13.3954761 L12.452793,23.4564513 C12.452793,23.4564513 11.7636587,30.0341795 13.1963015,33.324849 C17.302147,31.4628644 21.3323414,30.7479201 23.1461948,30.8454126 C23.1461948,30.8454126 25.6284967,33.3729934 30.3070447,31.8173276 C34.9861837,30.2616617 36.4182355,28.5122147 36.1315887,26.6646735 C36.1315887,26.6646735 41.7652319,22.5814269 44.7250814,22.2895515 C44.7250814,22.2895515 43.9614781,16.9834372 40.4283351,14.0947734 C36.8957831,11.2061097 31.3578858,6.97782806 31.3578858,6.97782806 C31.3578858,6.97782806 20.3772462,6.34894188 13.9799997,13.3954761" id="Fill-16" fill="#FFFFFF"></path>
                            <path d="M31.4550023,24.3719045 L31.4550023,22.1340346 C31.4550023,22.1340346 34.4399006,18.9010269 36.3698464,17.905889 C36.3698464,17.905889 32.8046954,21.6364657 32.4672722,22.2334294 L32.0813983,24.3719045 L31.4550023,24.3719045 Z" id="Fill-18" fill="#5B4E43"></path>
                            <path d="M25.065705,26.3872022 L23.5392382,24.5243903 C23.5392382,24.5243903 18.9382863,24.0810832 16.71047,24.7061923 C16.71047,24.7061923 22.116219,25.1264448 22.7947855,25.3695061 L24.5626298,26.8588335 L25.065705,26.3872022 Z" id="Fill-20" fill="#5B4E43"></path>
                            <path d="M27.523127,28.3891609 L30.963529,27.3562193 C30.963529,27.3562193 30.9798202,29.3505125 29.7627239,29.778135 C28.5456277,30.2051182 27.523127,28.3891609 27.523127,28.3891609" id="Fill-22" fill="#E79B8A"></path>
                            <polygon id="Fill-24" fill="#E79B8A" points="30.4934345 31.8326915 29.9805491 29.9776327 30.4484186 29.8431483 30.9635179 31.7041056"></polygon>
                            <g id="Group-28" transform="translate(28.997580, 17.905889)">
                                <mask id="mask-10" fill="white">
                                    <use xlink:href="#path-9"></use>
                                </mask>
                                <g id="Clip-27"></g>
                                <path d="M30.0959287,0.324972542 C30.0959287,0.324972542 26.356393,3.41072645 25.4262789,3.87471832 C24.4955685,4.337522 15.9456735,5.9849605 15.148518,6.43172348 C14.3513625,6.87848647 3.98774498,15.2855915 0.068148745,21.0442 C0.068148745,21.0442 6.1132942,20.1174044 6.91044969,20.3164279 C7.7082014,20.5148572 20.1973682,21.5081919 21.3266221,21.3757076 C22.4564722,21.2432234 31.3581412,18.1045946 35.9425305,5.83881197 C35.9425305,5.83881197 38.1342609,0.324972542 30.0959287,0.324972542" id="Fill-26" fill="#FFFFFF" mask="url(#mask-10)"></path>
                            </g>
                        </g>
                    </g>
                </g>
            </g>
        </g>
    </g>
</svg>